<svg width="1200" height="1498" viewBox="0 0 1200 1498" fill="none" xmlns="http://www.w3.org/2000/svg">
<mask id="mask0_5108_69969" style="mask-type:alpha" maskUnits="userSpaceOnUse" x="0" y="0" width="1159" height="945">
<rect width="1159" height="945" transform="matrix(1 0 0 -1 0 945)" fill="url(#paint0_linear_5108_69969)"/>
</mask>
<g mask="url(#mask0_5108_69969)">
<path d="M907.601 691.5C907.201 691.5 907.001 691.5 906.801 691.6C906.501 691.8 906.501 691.6 906.601 691.3C905.401 688.4 904.301 685.7 903.101 683C902.301 681.2 901.501 679.4 900.701 677.6C899.401 676.1 898.501 674.7 897.501 673.5C894.401 669.7 892.101 664.8 886.201 664.4L886.001 664.1C886.001 664.1 886.001 664 886.101 664C884.301 660.5 882.601 657.3 880.901 654.2C877.201 655.6 873.501 657 869.901 658.4C869.001 658.7 868.801 658.6 869.601 658.2C864.301 658.2 859.301 658.4 854.401 658.9C854.901 660 854.901 660 854.101 658.8C853.601 658.4 853.301 658.3 853.101 658.3C851.701 659.2 851.701 659 853.101 657.9C851.801 654.6 850.601 651.7 849.701 649.8C846.101 648 843.101 646.4 840.001 644.9L839.901 644.1V644C840.701 639.4 841.601 635.2 842.201 630.9C842.701 627 838.801 621.6 834.901 620.5C834.601 620.1 834.201 619.6 833.901 619.2C834.201 619.6 834.601 619.9 835.001 620.1C834.401 618.8 833.601 617.9 832.801 617.4V617.3C832.901 617 832.901 617 832.901 617C832.901 616.9 832.901 616.7 833.001 616.6C833.001 616.6 833.001 616.6 833.101 616.6C833.101 616.4 833.101 616.2 833.101 616.1C833.101 615.8 833.101 615.6 833.001 615.4V615.2C832.801 614.7 832.501 614.5 832.201 614.7L831.001 614.1C828.801 610 826.601 606.3 824.301 602.5L824.201 602.2C824.201 602.1 824.301 602.1 824.301 602C824.301 599.3 824.301 597 824.001 594.6C824.101 594.5 824.201 594.5 824.301 594.4C826.101 591.3 827.201 588.3 827.901 585.3C826.701 585.3 826.901 585.1 828.101 585C831.501 580.2 834.301 575.6 837.301 571.2C839.601 567.9 842.401 565 844.601 561.7C845.401 560.4 845.601 558.2 845.201 556.7C844.301 553.6 842.701 550.7 841.001 547.8C840.901 547.7 840.901 547.7 840.801 547.6L840.901 547.4C844.401 542.5 847.501 537.9 850.601 533.3H850.901C851.601 533 852.001 532.7 852.401 532.3L852.901 532C854.001 531.7 854.601 531.1 855.001 530.3H855.401C859.301 529.7 862.601 529 865.901 527.7C865.901 527.9 865.901 528 865.901 528.2C866.001 531.5 866.101 534 866.301 537.4C872.701 531.9 877.001 526.4 879.201 519.7C880.401 516.2 880.601 512.3 881.201 508.6C881.001 508.5 880.901 508.4 880.701 508.3L880.901 508.1C881.101 508.2 881.201 508.3 881.401 508.4C881.601 508 881.701 507.8 881.801 507.7C881.801 507.5 881.901 507.3 881.901 507L882.001 506.8C882.001 507.1 882.001 507.3 882.101 507.5C885.401 505.7 888.901 504.5 891.001 502.1C893.701 499 896.901 495 893.901 490.7C891.901 487.8 888.601 485.9 885.801 484C885.801 483.9 885.801 483.8 885.801 483.7C885.701 482.2 885.701 481.4 885.201 480.6C882.301 478.5 879.801 476.6 877.301 474.6H877.201C877.201 474.5 877.201 474.5 877.201 474.4C877.101 474.2 877.001 473.9 876.701 473.7C874.601 472.1 872.901 470.7 871.201 469.2C868.801 467 866.301 465.6 863.201 468.3L863.901 469.7C862.201 470.7 860.701 471.5 859.701 472.4L859.401 472.5C858.101 473.9 857.501 475.2 856.901 476.5L856.601 476.8C855.901 478.2 855.501 479.4 855.101 480.7L854.701 480.6C853.801 480.3 853.201 480.1 852.701 480H852.601C852.601 480 852.601 480 852.501 480L851.501 479.9C848.601 480.4 844.101 476.9 843.701 482.6L843.401 482.9C843.201 483.8 843.201 484.6 843.401 485.3C843.401 485.4 843.401 485.4 843.301 485.5C843.001 485.7 842.701 485.8 842.701 485.8C842.501 486.2 842.201 486.6 841.801 487.5C838.501 493.5 835.301 499 829.001 501.6H828.501C827.601 503.2 827.001 504.8 826.701 506.4C826.301 509.1 826.101 511.9 825.801 514.6L825.401 514.5C825.401 514.5 825.401 514.5 825.401 514.4C823.201 513.7 821.401 513.3 819.601 513.2L819.201 513.1C819.101 513.1 819.101 513.1 819.001 513.1C810.601 512.7 802.601 512.7 794.601 512.7L792.601 512.6C792.001 512.8 791.701 513.2 791.601 513.5L789.901 514.2C789.401 514.4 789.001 514.6 788.601 514.8L788.101 513.3V513C788.201 513 788.201 513.1 788.301 513.1C788.601 512.4 788.701 511.8 788.401 511.3L788.901 510.9C791.501 509.1 793.601 507.4 795.501 505.5L796.101 505.1C801.201 496 802.401 486.1 801.701 475.8V475.1C801.701 472.8 801.701 470.9 801.701 468.3C803.601 469.2 804.801 469.9 806.101 470.2C806.201 470.3 806.301 470.5 806.401 470.6C811.401 477 815.901 483.3 823.601 485.9L823.701 486.3C823.701 486.3 823.701 486.3 823.601 486.3C823.601 486.9 823.601 487.2 824.001 487.5L824.101 487.7C824.501 487.9 825.101 487.8 825.701 487.7H825.901L826.001 487.8C827.601 488.1 829.001 488.3 830.301 488.5L830.801 488.8C831.701 488.3 832.501 487.6 833.001 486.9L833.101 486.7C833.101 486.6 833.201 486.6 833.201 486.6L833.401 486.3C833.701 483.7 834.101 481.1 833.201 479.1C829.901 472.4 826.001 466 822.601 459.4C818.501 451.4 814.001 443.6 810.701 435.3C807.601 427.3 805.901 418.8 803.401 410.6C802.101 406.5 799.401 403.9 794.701 404L794.501 403.7C794.501 403.7 794.501 403.6 794.601 403.6C794.501 403 794.401 402.8 794.101 402.7C794.101 402.8 794.001 402.8 794.001 402.9V402.6C794.001 402.5 794.101 402.5 794.101 402.4C794.401 401.1 794.501 400.3 794.201 399.6L795.001 398.6C795.901 397.6 796.701 396.7 797.201 395.8L797.301 395.7L797.801 395.4C799.501 394.5 800.601 393.6 801.601 392.7L802.101 392.6C803.501 392.1 804.601 391.6 805.401 391.1V390.8C805.401 390.8 805.501 390.8 805.501 390.7C807.701 389.2 809.301 387.9 811.101 386.8C814.601 384.6 818.201 382.6 821.801 380.5H822.201C824.501 379.6 826.301 378.4 828.301 377.8C831.301 376.9 831.201 375.3 829.401 373.6C827.501 371.8 825.601 369.8 823.301 368.8C814.301 364.8 804.901 366.8 795.701 367.3H795.401L794.001 366.9C797.601 363.3 798.801 359.5 797.201 354.9C795.501 354.7 793.901 355.1 792.901 354.4C789.101 351.8 785.501 349 781.801 346.6L780.701 345.7C780.501 345.2 780.401 345 780.201 344.8L779.801 344.1V341.7C779.901 341.7 780.001 341.8 780.201 341.8C783.001 343.1 785.501 343.9 787.901 344.8C788.201 344.4 788.501 343.9 788.801 343.5C780.301 333.1 774.101 320.9 762.201 311.7C763.501 310.7 764.901 309.6 766.301 308.5C768.401 306.8 770.601 305.2 772.701 303.5L773.001 303.4C775.401 300.5 777.501 297.7 779.601 294.9L779.901 294.6C780.001 294.7 780.001 294.7 780.101 294.7C781.101 294.2 781.801 293.7 782.401 293.1C781.801 292.6 781.101 292.2 780.401 291.9H780.001C774.301 292.4 768.901 293.1 763.601 293.9L763.501 293.6C762.801 293.1 762.301 292.8 761.701 292.8C761.601 292.7 761.501 292.7 761.401 292.6C760.301 292 759.401 291.8 758.601 291.6L758.401 291.3C756.701 291.2 755.101 291.4 753.901 291.8H753.801C753.701 291.8 753.601 291.8 753.501 291.8C751.301 291.5 749.801 291.5 748.501 291.9L748.401 291.7C748.301 291.5 748.301 291.5 748.301 291.5V291.1C748.201 290.3 748.101 289.8 747.701 289.4L747.601 289C747.901 287.9 747.801 287.2 747.301 286.4V286.3C747.401 286.3 747.501 286.2 747.601 286.2C752.001 283.3 750.801 279.6 749.801 276.1L749.901 275.8C750.401 275.2 750.501 274.8 750.601 274.5C750.701 274.5 750.801 274.4 750.901 274.4C751.801 273.4 752.301 272.5 752.501 271.5V271.1C753.701 266.9 754.501 263.2 755.301 259.4L755.601 259.2C756.401 258.1 756.901 257.2 757.101 256.4L757.201 256C757.601 254.5 757.601 253.5 757.301 252.5L757.601 252.2C759.501 247 760.901 242 762.201 237L763.001 235.2C763.601 233 763.901 231 764.001 229C764.101 228.7 764.201 228.4 764.301 228.1C765.301 224.9 765.801 222.1 766.201 219.2L766.301 218.9C764.501 214.4 761.501 214.7 758.401 219.1L758.101 219.5C758.101 219.9 758.101 220.3 758.301 220.6V220.9C753.201 223.9 748.101 227.1 746.401 233.3L746.101 233.6C745.901 234.1 745.801 234.4 745.801 234.8L745.501 235.2C740.501 237.9 737.201 241.8 736.001 247.2C736.101 247.2 736.101 247.3 736.201 247.3L736.101 247.6C736.001 247.6 735.901 247.5 735.901 247.5C735.301 248.4 734.801 249.1 734.701 249.8L734.301 250.2C730.901 255 728.201 259.8 725.501 264.5C725.401 264.7 725.301 264.9 725.101 265.2L724.901 265.6C724.601 267 724.501 268.1 724.701 269.2L724.401 269.5C720.401 273.3 719.301 277.7 719.801 282.5L719.501 282.7C718.801 283.9 718.501 284.8 718.501 286L718.401 286.3C717.801 287.1 717.701 287.8 717.501 288.4L717.101 288.1C716.401 287.5 715.901 287 715.301 286.6L715.101 286.2C715.101 286.1 715.001 286 715.001 285.9V285.8C715.001 285.8 715.001 285.7 714.901 285.7L714.401 285.1C706.601 283.7 699.001 282.6 691.601 281.6C691.801 281.3 692.101 280.8 692.501 280.3L693.001 279.7C693.201 279.6 693.501 279.3 693.501 279.3C693.501 279.3 693.501 279.3 693.501 279.2H693.801C694.901 277.5 695.601 275.9 696.001 274.3C696.001 274.3 696.001 274.3 696.001 274.2C696.301 274.1 696.401 274 696.401 274H696.701C697.201 273.5 697.401 272.9 697.501 272.4V272C697.901 270.9 698.201 270.1 698.401 269.3L699.001 267.4C699.101 266.6 699.101 266.1 698.801 265.5L699.001 265.1C699.601 264.3 699.501 263.4 699.401 262.5C698.701 263.3 698.101 264 697.401 264.8L697.301 264.9C697.201 264.9 697.101 264.9 697.001 264.9C696.201 265.7 695.801 266.5 695.801 267.3C695.501 267.2 695.401 267.2 695.401 267.4L695.001 267.5C693.501 267.8 692.501 268.6 691.301 269.2C683.101 273.1 674.901 276.9 667.101 281C667.001 281 666.901 281 666.701 281C660.001 285.2 656.501 290.6 658.901 298.4L658.801 298.7C658.801 298.7 658.801 298.7 658.701 298.7C658.301 299.5 658.301 300 658.401 300.4C658.301 300.4 658.201 300.5 658.101 300.5C657.901 301.6 658.001 302.5 658.401 303.2L658.501 303.4C658.501 303.5 658.501 303.5 658.401 303.6C658.601 306.2 659.101 308.2 660.001 310.4V311.8C660.001 311.5 659.901 311.2 659.901 310.8C659.401 313.9 659.501 316.7 659.201 319.4C659.101 320.7 658.101 321.9 657.301 323.4L657.201 323.1C657.101 317.6 657.301 313.1 654.901 308.3C652.701 303.9 653.701 297.7 653.301 292.4V292C653.101 289.5 653.001 287.4 652.501 285.4L652.601 285.1L652.701 285C653.201 283.6 653.201 282.6 653.301 281.6L653.401 281.1C653.401 278.3 653.201 275.8 652.801 273.4V273C652.801 273 652.801 273 652.901 272.9C653.401 270.1 653.601 267.8 653.701 265.5V265.4C653.801 265.4 653.901 265.4 654.001 265.4C654.701 262.7 655.001 260 655.101 257.6V257.3C655.401 256.3 655.401 255.9 655.401 255.5L655.801 254.9C655.801 255 655.701 255.1 655.701 255.3C656.201 254.6 656.601 254 656.901 253.4L657.201 253L657.501 251.9C657.501 251.8 657.601 251.8 657.601 251.7L657.701 251.2C657.701 251.2 657.701 251.3 657.801 251.3C657.801 251.1 657.801 251 657.801 250.8C657.801 250.4 657.701 250 657.501 249.7L657.401 249.1C657.501 247.9 657.301 247.1 657.201 246.4L657.301 246.3H657.401C657.701 246 657.901 245.8 658.001 245.6C658.101 245.4 658.201 245.2 658.201 245.1L658.501 244.5C658.501 244.5 658.601 244.5 658.601 244.6C659.501 242.8 660.201 241 660.801 239.2C661.301 237.6 661.801 236 662.301 234.3L662.601 233.4C662.601 233.3 662.701 233.2 662.701 233.1L662.801 232.6C664.501 230.9 665.601 229.3 666.601 227.6C668.901 223.5 671.301 219.4 673.501 215.3C674.301 213.8 674.901 212.3 675.601 210.7C673.401 210.4 670.801 209.3 669.201 210.1C666.101 211.6 663.601 214.1 660.801 216.2L659.901 216.6C654.601 221.3 649.501 226 644.601 230.8C644.301 231.1 644.701 231.9 644.701 232.6L644.101 234.2C642.401 235.3 640.801 236.3 640.001 237.8C636.301 244.3 632.801 251 629.301 257.6L629.101 257.9C626.801 264.5 622.701 270.3 624.401 277.5L623.901 278.6C623.601 279.2 623.301 279.8 623.101 280.4C623.001 280.7 622.901 281 622.801 281.3C622.801 281.3 622.801 281.3 622.901 281.3L622.801 281.8C623.201 289.4 623.901 296.5 624.701 303.5C624.801 304.1 625.701 304.6 626.201 304.6C626.201 304.7 626.201 304.9 626.201 305C626.801 308 627.301 310.2 628.101 312.2C629.601 316.3 631.201 320.4 633.101 324.5L633.001 324.6C632.501 324.5 632.201 324.7 632.201 324.7C632.201 324.9 632.301 325 632.301 325.2L632.201 325.3C632.101 325.1 632.001 324.9 631.901 324.7C631.801 324.7 631.801 324.7 631.701 324.6L631.301 324C631.201 323.9 631.101 323.8 631.001 323.7V323.6C628.101 320.7 628.601 326.1 626.401 325.8L626.301 325.5C626.301 325.4 626.301 325.4 626.401 325.3C624.901 319.5 623.301 314.3 621.301 309.3C620.001 306.1 617.901 303.3 616.101 300.3L616.001 300C614.001 298.6 612.001 297.5 610.101 296.5C609.101 298.9 607.301 301.3 607.201 303.7C606.801 310.3 607.101 316.9 607.101 323.6C607.401 323.8 607.701 324.1 608.101 324.5C607.801 324.2 607.401 323.9 606.901 323.8C607.301 324.4 607.901 324.9 608.501 325C608.601 325.1 608.701 325.2 608.801 325.3C609.801 328.8 610.501 331.9 611.201 334.9V338.2V338.7C611.201 340.7 611.301 342.6 611.501 344.2C611.501 344.3 611.501 344.5 611.501 344.6C611.501 346.5 611.801 347.7 612.101 348.9L612.201 349C612.201 349.1 612.201 349.1 612.101 349.2C612.701 349.8 613.201 350.2 613.901 350.4L614.101 350.5C614.001 350.6 614.001 350.7 613.901 350.8C610.601 355.3 611.201 359.8 611.601 364.3V364.9C611.501 364.8 611.501 364.7 611.401 364.7C611.201 365.6 611.201 366.1 611.101 366.6V366.7L611.001 366.9C611.001 366.8 610.901 366.8 610.901 366.7C610.701 367 610.501 367.3 610.501 367.6C610.401 367.8 610.501 368 610.501 368.2V368.5C610.401 368.5 610.201 368.5 610.101 368.5C599.601 369.4 590.001 370.2 580.401 371.3C580.601 371.6 580.701 371.9 580.901 372.1H580.801C580.701 371.8 580.501 371.6 580.101 371.2C579.401 371.6 578.701 372.1 577.901 372.5C575.001 374.3 572.201 376.1 569.701 378.3C565.101 382.5 565.701 387.3 571.101 390.6L571.201 390.7C571.201 390.8 571.201 390.9 571.201 391C573.401 397.3 575.701 402.7 578.001 408.3C578.201 409.1 578.301 409.8 578.501 410.6L578.401 410.7C578.201 410 578.101 409.4 577.901 408.7C578.101 411.5 576.501 412.4 574.101 412.9C574.201 413.5 574.301 413.8 574.401 414.2L574.101 414.5C569.001 416.6 564.201 418.3 559.101 420.3C558.601 419.5 557.901 419 556.501 418.6C553.001 420.3 549.701 421.8 546.401 423.4C542.201 425.4 538.101 427.5 534.001 429.6C528.201 432.7 522.701 436.3 517.101 439.8C513.101 442.3 509.101 444.9 505.101 447.5L503.901 448.2C502.701 449.9 499.101 450.5 501.801 453.3C502.401 452.9 502.901 452.6 503.501 452.2L503.401 452.3C502.801 452.7 502.201 453.1 501.401 453.6C500.101 454.9 499.201 455.8 498.601 456.8L498.201 457.2C497.201 457.6 496.801 458 496.401 458.3C495.901 459.5 495.301 460.7 494.601 462C495.301 460.8 495.701 459.5 496.001 458.3C494.901 460 494.301 461.6 493.901 463.2C493.901 463.2 493.901 463.2 493.901 463.3C493.601 463.4 493.501 463.4 493.501 463.4C493.201 463.9 493.001 464.4 492.501 465.4C492.201 466.9 492.101 468 492.401 469.1C492.301 469.2 492.201 469.2 492.101 469.3C486.901 472.1 490.901 475.8 490.601 479C490.501 479.1 490.401 479.2 490.301 479.2C488.701 481.7 487.701 483.9 486.701 486.2L486.101 486.4V486.3C476.801 486.2 468.101 486.2 459.301 486.6C461.001 488.7 462.601 490.7 464.301 492.5C462.601 490.7 460.901 488.7 458.901 486.5C456.701 485 454.001 484.5 453.101 483C449.401 476.7 443.701 475.4 437.101 475C433.401 474.8 432.201 476 432.201 479.8C432.401 493.9 432.301 508.1 432.301 522.2C432.301 523.8 431.901 525.4 431.801 527.1C431.601 529.2 431.501 531.4 431.401 533.5L431.301 533.7L430.001 534.5C429.001 534.3 428.201 534.2 427.201 534.3C426.901 534.7 426.701 535.1 426.601 535.5H426.501C426.701 535.1 426.901 534.6 427.301 533.9C424.401 521.9 421.501 519.7 409.301 522C409.701 523.2 410.001 524.5 410.601 524.8C409.901 524.5 409.701 523.2 408.901 522.1C402.801 523.8 396.901 525.4 391.301 527.8C389.201 528.7 386.401 531.1 386.401 532.8C386.501 540.4 382.801 546.7 380.401 553.3C381.101 555.2 382.201 557.8 381.901 559C382.201 557.7 381.001 555.2 380.201 553.6C378.801 556.1 378.001 558.3 377.201 560.5C376.701 561 376.201 561.6 375.601 562.1C376.101 561.6 376.601 561 376.801 560.5C375.801 560.2 375.201 560 374.501 560.1C374.501 560 374.401 559.9 374.401 559.8C373.701 553.3 372.901 547.5 372.001 541.8C371.901 541.3 371.101 540.9 370.601 540.5C370.401 539.9 370.201 539.2 370.001 538.5C370.201 539.2 370.401 539.8 370.701 540.2C370.501 538.9 370.301 537.9 369.801 537.2C369.801 537.1 369.801 536.9 369.801 536.8C365.101 531.9 360.201 527.6 355.301 523.4C355.201 524 354.801 524.7 354.701 525.4C354.901 524.7 355.201 523.9 355.201 523.1C352.001 519.1 348.901 515.3 345.801 511.6C345.101 512 344.301 512.4 343.601 512.8C344.301 512.4 345.101 512 345.701 511.2C342.301 506.1 339.601 500.8 335.601 496.7C329.101 490 321.901 484.1 314.801 478C314.201 477.5 313.001 477.7 312.001 477.5C311.901 477.4 311.901 477.3 311.801 477.2C308.801 475.1 305.901 473.2 303.101 471.7C303.201 472 303.201 472.3 303.301 472.5C303.201 472.2 303.101 471.9 302.901 471.5C301.101 470.1 299.601 469.3 298.101 468.5C297.801 468.5 297.501 468.5 297.101 468.4C297.401 468.4 297.701 468.3 297.901 468.2C297.201 468 296.701 468 296.301 468.1C296.201 468 296.001 468 295.801 467.9C295.001 467 294.601 466.4 294.001 466.2C286.101 463.1 278.201 459.9 270.101 457.1C263.001 454.6 255.801 452.7 248.601 450.5C244.601 449.3 240.501 448.2 236.401 447L236.201 446.7C234.801 446.5 233.301 446.5 231.701 446.8H230.501C229.101 446.5 228.001 446.5 227.001 446.5L225.701 446.4C220.301 447.9 219.501 449.6 221.201 455.5L221.101 455.8L221.001 455.9C220.801 456.9 220.601 457.9 220.501 458.9V459V459.1C220.201 461.6 220.101 463.9 220.201 466.2L220.001 466.4C219.901 466.4 219.901 466.3 219.801 466.3C219.601 466.6 219.301 466.9 219.101 467.2C218.401 468.3 218.001 469.4 218.001 470.4C217.901 492.5 218.001 514.7 218.001 536.8C218.001 537.8 218.001 538.8 218.201 539.8C219.601 546.6 220.801 553.4 222.401 560.1C224.401 568.5 226.701 576.8 229.001 585.1C230.301 589.6 232.101 593.9 234.001 598.3C234.301 598.3 234.601 598.2 235.001 598.2C234.601 598.3 234.201 598.4 233.801 598.5C234.101 601.8 234.401 605 235.601 607.9C238.801 615.3 242.001 622.6 245.601 629.8C246.301 631.2 247.001 632.6 247.701 633.9C251.201 640.5 256.601 646.2 259.401 653C262.801 661.2 269.101 666.9 274.301 673.5C279.901 680.7 286.901 686.8 293.601 693.1C298.401 697.6 303.401 702 308.601 705.9C310.901 707.6 314.201 708 317.101 708.9L317.201 709C317.301 709.1 317.601 709.4 317.601 709.4C318.301 709.6 319.001 709.7 319.701 710C319.001 709.8 318.301 709.7 317.601 709.8C318.701 710.4 319.801 710.6 320.801 710.5C320.901 710.5 321.001 710.6 321.101 710.6C321.301 710.9 321.501 711.1 321.601 711.2L321.701 711.6C325.601 716.3 330.801 718.5 336.101 720.1L340.901 721.8C345.001 724.4 348.901 726.8 353.001 728.9C354.101 729.5 355.601 729.5 357.001 729.7L357.101 729.8H359.001L360.601 730.5C362.001 733.1 363.501 734.4 366.101 731.6L366.601 731.8C367.101 732.1 367.401 732.2 367.701 732.2C367.701 732.2 367.701 732.2 367.801 732.2L368.701 732.6C368.401 732.6 368.001 732.6 367.701 732.6C368.501 733.9 369.101 735.2 370.201 735.7C376.401 738.5 382.901 740.8 389.901 740C390.001 740.1 390.001 740.2 390.101 740.3C391.501 741 392.701 741.4 394.101 741.4C395.101 741 396.101 740.8 397.101 740.6H397.201C396.301 740.8 395.301 741.1 394.601 741.5C397.801 742.1 400.701 742.2 404.001 742.1C408.901 741.6 408.901 741.6 404.201 742.5C405.101 743 406.101 743.3 407.001 743.6C408.001 743.9 409.001 744 410.001 744.1C413.401 744.5 416.801 744.8 420.101 745.1L421.801 745.6C423.101 746.2 424.101 746.8 425.201 746.8C438.701 746.9 452.101 746.8 465.601 746.8C466.601 746.8 467.601 746.6 468.601 746.5C476.701 745 484.901 743.6 493.101 741.8C493.501 741 493.501 741 493.301 742.1C495.401 746.6 492.701 749.3 490.801 752.1C488.201 755.8 485.701 759.4 488.501 764C489.901 763.6 489.901 763.6 488.301 764.3C487.001 766.8 486.101 768.8 485.701 770.9C487.001 771.2 486.901 771.5 485.501 771.2C484.301 772.9 483.601 774.4 483.101 775.9C481.101 781.3 479.101 786.7 477.101 792C477.401 793.1 477.401 793.1 476.801 792.1C475.401 792.9 474.201 793.6 473.301 794.5C467.501 801.4 458.901 802.9 451.101 806C451.401 806.5 451.301 806.4 450.901 805.7C448.401 804.1 446.001 802.7 443.401 801.4C442.801 801.6 442.801 801.6 443.501 801C450.201 791.6 450.201 791.6 450.201 782.8C450.201 781.5 450.601 779.9 450.101 778.8C449.101 776.6 447.701 774.5 446.101 772.7C445.201 771.7 443.601 771.4 441.901 770.7C438.901 772.6 434.101 774 432.601 777C430.901 780.3 432.201 785.1 432.201 789.3C432.201 790.1 432.201 791 432.201 791.8C432.101 794.5 431.601 797 435.701 797.6C437.601 797.9 439.101 800.2 440.801 801.6C440.701 801.6 440.601 801.7 440.501 801.8C435.801 805.6 431.501 809.4 427.201 813.1L426.801 813.6C426.801 813.5 426.901 813.3 426.901 813.2C426.401 813.7 426.101 814.2 425.801 814.7L424.301 816.4C423.201 816.8 422.401 817.3 421.701 818C417.501 822.6 413.401 827.2 409.301 831.8H409.101C409.101 831.7 409.101 831.7 409.101 831.6C408.301 830.6 407.601 829.9 406.801 829.2C406.301 830.1 405.701 831 405.201 832.2L404.801 832.3C397.301 832.8 390.301 833.7 383.201 834.5C382.901 834.8 382.601 835.1 382.201 835.3H381.801C382.101 835 382.501 834.6 382.801 834.3C381.801 834.2 381.101 834.2 380.001 834.4C379.801 834.6 379.601 834.7 379.401 834.9L379.001 834.8C379.301 834.6 379.501 834.4 379.801 834.1C377.101 833.4 374.301 833 371.401 832.9L370.701 832.7C367.101 831.6 363.701 830.9 360.201 830.5C360.101 830.6 360.101 830.7 360.001 830.7L359.701 830.6C359.701 830.5 359.801 830.4 359.801 830.3C358.201 829.5 356.601 829.4 355.501 828.6C349.201 824.4 343.101 819.9 336.901 815.6C336.901 815.9 337.001 816.3 337.001 816.7L336.901 815.7V815.6C336.901 815.5 336.901 815.4 336.901 815.3C336.901 815.1 336.901 815 336.801 814.9L336.701 813.6L336.801 813.5C336.901 813.5 336.901 813.5 337.001 813.5C337.301 813.2 337.601 812.9 337.801 812.7L338.401 811.7C340.001 810.5 341.001 809.4 342.101 808.4C343.901 807.8 345.601 807.3 348.101 806.5C352.501 805.3 356.401 804.7 359.901 803.2C362.201 802.3 364.001 800.2 366.001 798.6C366.001 798.5 366.101 798.3 366.101 798.2L366.201 798.1C366.201 798.2 366.201 798.4 366.201 798.5C366.401 798.2 366.601 797.8 366.601 797.6L367.401 796.6C367.901 794 368.001 791.4 367.801 789C367.801 788.9 367.801 788.8 367.901 788.6C367.801 787.2 367.401 786.5 367.001 785.7V785.3C366.401 783.8 365.801 782.6 365.201 781.8C365.201 781.6 365.301 781.5 365.301 781.5C365.001 781.3 364.801 781 364.501 780.7C364.701 780.9 365.001 781.1 365.201 781.2C364.801 780.6 364.401 780.2 363.901 779.9C363.801 779.7 363.801 779.6 363.701 779.4C362.701 777 361.401 775.2 359.701 772.7C362.101 771.1 364.401 769.3 366.901 768C371.301 765.6 377.401 754.6 376.801 749.7C375.601 750.4 375.601 750.4 376.901 749.2C377.001 747.2 377.101 745.7 377.001 744.2C376.801 741.3 375.001 740.5 373.101 742.4C369.901 745.5 366.501 747.7 362.001 749C357.201 750.5 353.001 750.4 348.801 747.6C346.801 746.2 342.701 745.1 341.201 746.2C337.201 748.9 334.401 747.5 330.801 745.8C325.001 743 319.601 739.9 316.901 733.5C316.101 733.5 315.301 733.5 314.301 733.5C314.001 733.5 313.801 733.3 313.801 733.3C313.501 734.5 313.301 735.5 313.101 736.2C311.901 749.7 322.701 762.3 333.101 763.9C333.301 763.7 333.301 763.9 333.201 764.2C335.001 766.6 336.901 768.3 338.401 770.2C339.001 771 339.501 773.1 339.001 773.6C336.001 776.4 334.001 780.7 329.401 781.2H328.201L327.701 781.5C327.801 781.4 327.901 781.2 328.001 781.1C327.501 781.4 327.101 781.7 326.901 782.1L325.901 782.7C323.001 783.3 320.601 783.8 318.201 784.4C318.301 784.5 318.401 784.6 318.401 784.6C318.701 784.6 318.901 784.6 319.201 784.6L318.401 784.8C318.401 784.6 318.301 784.5 317.801 784.5C315.401 784.7 313.401 785 311.501 785C306.701 785.1 301.601 784.2 297.501 787.9L296.901 788C289.601 787.7 283.301 792.3 283.001 797.9L282.501 798.5C281.201 799.3 280.401 800.1 280.101 801.1L280.001 801.3C279.901 801.3 279.801 801.2 279.701 801.2C277.701 803.9 276.501 806.7 275.301 809.4L275.001 809.9C275.001 809.7 274.901 809.6 274.901 809.4C274.801 809.8 274.601 810.3 274.501 810.7C272.401 817.2 270.101 823.5 272.001 830.4L272.101 830.8C272.001 830.8 272.001 830.8 271.901 830.7C272.001 831.1 272.201 831.4 272.301 831.8V831.9L272.401 832C273.901 835.9 275.801 839.6 277.601 843.2C277.601 843.3 277.701 843.4 277.701 843.6L277.601 843.8C277.601 843.7 277.501 843.7 277.501 843.6C277.501 843.7 277.501 843.8 277.601 843.9L277.501 844.1L277.901 845C278.301 846.5 278.801 847.8 279.301 848.8C279.101 848.1 278.901 847.4 278.701 846.8L278.901 847.3C279.101 847.9 279.301 848.5 279.501 849.1C280.601 852 281.501 854.1 282.801 856.3L282.901 856.7H282.801C283.001 857.7 283.301 858.6 283.501 859.5V859.6V859.7C284.201 862.1 285.101 864.3 286.001 866.6C286.001 866.5 286.001 866.5 286.101 866.4L286.201 866.7C286.201 866.8 286.201 866.8 286.201 866.9C286.501 867.5 286.701 867.9 286.901 868.4C287.101 868.8 287.201 869.1 287.401 869.4C287.701 869.7 288.001 870 288.301 870.3C288.001 870 287.701 869.8 287.401 869.7C287.901 870.5 288.401 871 288.901 871.3C289.001 871.4 289.001 871.6 289.101 871.8C289.101 873.2 289.201 873.8 289.201 874.5L289.401 874.8C289.301 874.8 289.301 874.8 289.201 874.8C289.401 875 289.701 875.3 289.901 875.5C290.801 876.4 291.601 877.1 292.501 877.7L294.101 879L297.401 881.9C302.201 886.8 307.201 891.5 312.301 896C314.701 898.1 317.701 899.7 320.401 901.5C322.101 902.5 323.801 903.4 325.901 904.5L326.601 905.1C326.501 905.9 326.401 906.4 326.401 907.3C328.701 909.2 331.001 910.8 333.401 912.3C334.301 911.7 335.201 911 336.101 910.4L336.201 910.5C335.301 911.2 334.301 912 333.401 912.7C333.101 913.8 333.101 914.8 332.601 915.3C327.501 920 324.801 925.2 327.501 932.3C327.801 933.1 326.701 934.4 326.701 935.4C326.801 940.4 327.001 945.5 327.201 950C327.201 950.5 327.201 950.5 327.201 950.5C327.501 950.7 327.901 951 328.201 951.3C327.901 951.1 327.501 950.9 327.201 950.9C327.701 951.5 328.201 951.9 328.801 952.1C328.901 952.2 329.001 952.3 329.001 952.4C328.901 953.3 328.901 953.6 328.901 954C329.201 954.3 329.601 954.6 329.901 955C329.501 954.7 329.201 954.4 328.701 954.3C329.201 955 329.801 955.5 330.501 955.7C330.601 955.8 330.701 955.9 330.701 956C330.901 957 331.001 957.5 331.001 958C331.301 958.4 331.601 958.7 331.901 959.2C331.601 958.8 331.201 958.5 330.801 958.3C331.201 959.1 331.701 959.6 332.301 959.8C332.301 959.8 332.301 959.9 332.401 959.9C332.301 960.2 332.401 960.2 332.401 960.2C334.701 962.9 336.901 965.5 339.701 968.5C340.601 968.9 341.001 969.1 341.401 969.2C342.101 969.6 342.701 970 343.801 970.6C345.801 972.1 347.401 973.3 349.001 974.4C351.601 975.5 354.301 976.5 356.901 977.7C354.301 976.6 351.601 975.6 349.001 974.7C353.001 976.6 356.901 978.2 360.701 979.5C360.901 979.6 361.001 979.6 361.201 979.7C361.301 980.1 361.401 980.1 361.401 980.1C362.001 980.4 362.601 980.8 363.601 981.5C364.801 982.3 365.601 982.7 366.501 983.1C371.201 983.7 375.901 984.2 380.901 984.6C381.801 984.7 382.801 984.7 383.701 984.8C384.101 984 384.101 983.6 384.101 983.2C381.401 983.4 381.101 982 381.101 980.4C381.101 982 381.401 983.3 384.101 982.7C384.101 971.6 384.101 961.1 384.101 950.5C384.101 946.4 383.601 942.4 387.501 939.3C389.401 937.7 390.701 935.3 392.201 933.3C391.601 932.2 391.701 932.2 392.401 933.3C392.601 933.3 393.101 933.3 393.101 932.8C393.101 931.3 393.401 931.2 393.501 932.8C398.001 930.6 402.101 927.9 406.301 925C407.901 923.6 408.101 923.6 406.701 925C407.701 925.3 408.401 925.3 409.101 925.3C410.501 924.2 410.601 924.4 409.301 925.6C412.101 927.4 414.601 929.2 417.401 930.5C422.601 932.9 427.901 935 433.101 937.3C433.101 936 433.401 936 433.501 937.3C435.501 937.2 437.101 937.1 437.801 937.1C440.501 930 442.701 923.5 445.401 917.3C446.001 915.9 448.401 915.3 449.901 914.3C449.901 914.3 450.001 913.9 450.101 913.6C450.801 912.6 451.001 912.4 450.401 913.2C451.401 912.2 451.401 912.4 450.401 913.4C450.101 913.8 450.001 914.2 450.201 914.5C460.001 912.1 471.301 914 478.301 904.3C478.301 903.4 478.301 902.5 478.301 901.6H478.401C478.401 902.5 478.501 903.4 478.501 904.3C478.701 904.3 479.101 904.3 479.501 904.2L475.601 910.5C475.501 910.7 475.301 910.9 475.201 911.2C474.501 912.3 473.501 913.2 472.701 914.3C472.501 914.5 472.401 914.8 472.701 915.3H472.801L472.601 915.6C472.501 914.8 472.501 914.5 472.501 914.1C471.601 914 470.701 913.8 470.401 914.2C465.801 918.8 461.401 923.4 456.801 928C456.901 928.3 456.901 928.3 456.501 928.1C453.201 931.4 450.201 934.6 447.201 937.8C447.201 937.9 447.201 937.9 447.101 938.1C447.001 938 447.001 937.9 446.901 937.8C445.901 938 445.301 938.2 445.101 939C445.201 939.1 445.201 939.1 445.301 939.2C445.101 939.2 444.901 939.1 444.801 939C442.101 940.5 440.201 942.5 438.301 944.4C438.101 945.1 437.901 945.7 437.601 946.4C437.801 945.8 437.901 945.1 438.001 944.5C437.301 945.7 437.001 946.8 436.801 947.9C436.701 948.1 436.601 948.3 436.401 948.5C435.301 949.4 434.901 950.2 434.401 950.9C434.101 951.4 433.801 951.9 433.001 952.8C432.701 954.6 432.801 956 433.201 957.4C434.301 957.5 434.301 957.5 433.001 957.8C432.301 960 432.701 962.1 431.901 963.4C428.901 968.1 430.101 972.7 431.701 977.4C432.001 977.6 432.201 977.7 432.501 977.8L432.601 978C432.201 977.8 431.801 977.6 431.401 977.5C431.301 979.7 431.501 982 432.401 983.9C435.001 989.6 436.501 996.3 442.901 998.9L443.101 999.2V999.3C443.201 1000.4 443.301 1000.9 443.401 1001.3C443.801 1001.8 444.301 1002.3 444.701 1003C444.301 1002.4 443.801 1001.9 443.301 1001.6C443.801 1002.7 444.501 1003.4 445.201 1003.9C445.301 1004 445.301 1004.1 445.401 1004.2C447.301 1007.3 449.201 1009.7 451.501 1012.1C451.401 1012.9 451.601 1013.6 451.901 1014.7C452.401 1016.2 452.401 1016.2 451.601 1015C450.201 1015.4 448.801 1015.6 448.101 1016.4C443.701 1021.9 439.601 1027.7 435.101 1033.1C433.001 1035.6 430.001 1037.3 427.401 1039.3C427.501 1040.3 427.201 1040.3 427.001 1039.3C420.801 1039.4 416.801 1043.1 417.201 1048.6C417.701 1055.9 415.501 1063.5 418.901 1070.7L420.101 1073.9L420.201 1074.1C420.401 1075.1 420.801 1076.1 421.201 1077L423.301 1083.1L423.201 1083.3C423.101 1083.3 423.101 1083.2 423.001 1083.2C422.201 1084.6 421.701 1085.9 421.601 1087V1087.5C421.201 1088.9 421.101 1089.8 420.901 1090.7L420.801 1091.4C420.701 1091.2 420.601 1091 420.501 1090.8C419.201 1096.8 418.301 1102.7 417.201 1108.6C417.101 1109.1 417.001 1109.7 416.901 1110.2L412.901 1123.7C411.401 1127 409.701 1130.3 408.601 1133.7C406.201 1141.3 404.301 1149.2 396.701 1153.5C390.501 1157 390.501 1163.6 388.901 1169C386.701 1176.2 383.601 1182.4 378.201 1187.7C376.601 1189.2 376.201 1191.9 375.401 1194.4L375.301 1195.1C375.201 1194.9 375.201 1194.7 375.101 1194.5C373.601 1193.9 372.501 1193.5 371.501 1193.6C371.901 1195.6 372.601 1197.2 372.401 1198.8C371.901 1203.8 371.101 1208.7 370.501 1214C370.801 1214.5 370.901 1214.7 371.001 1214.9C370.901 1215 370.901 1215.1 370.801 1215.3C370.601 1216.4 370.501 1217.2 370.501 1218.2C370.801 1219 371.001 1219.6 371.501 1220.1C371.901 1220.1 372.101 1220.1 372.401 1220.1V1220.2C372.101 1220.3 371.801 1220.4 371.501 1220.6C370.701 1223.9 370.101 1226.8 369.801 1229.7L369.301 1231.7C368.301 1232.9 367.501 1234.3 366.501 1236.1C365.501 1237.9 364.601 1239.1 364.101 1240.4C362.301 1244.7 360.501 1249 358.801 1253.3C356.801 1258.5 354.801 1263.7 353.101 1268.9C352.001 1272.2 351.501 1275.7 350.401 1279.1C349.201 1283 347.601 1286.8 346.401 1290.8C346.201 1291.4 346.901 1292.3 347.101 1293.1C347.301 1293.8 347.401 1294.5 347.501 1295.2L347.701 1298.2C346.901 1298.3 346.401 1298.4 346.001 1298.9C346.101 1300.3 345.901 1300.3 345.601 1298.9C344.901 1299.9 344.301 1301.2 344.301 1302.6C344.201 1308.1 344.301 1313.5 344.301 1319C344.301 1326.4 347.701 1330 355.201 1330.7C355.201 1330.8 355.201 1330.9 355.201 1331C357.201 1332.6 359.201 1334 361.401 1334.9C361.601 1333.8 361.701 1334 361.601 1335.2C364.801 1337.3 368.001 1339.9 371.301 1339.9C384.001 1340.2 396.901 1341.4 409.101 1336.9C407.201 1336.3 407.201 1336.3 409.501 1336.9C416.901 1334.5 422.901 1321.5 420.201 1315.4C413.501 1317.9 413.501 1317.9 411.001 1316.2C413.201 1315.1 415.001 1313.8 417.101 1313.1C422.801 1311.2 425.701 1297.1 421.501 1291.8C420.601 1294.1 420.601 1294.1 421.501 1291.4C421.401 1289.4 421.201 1287.8 420.801 1286.1C419.601 1285.1 419.601 1284.8 420.801 1285.6C421.901 1277.2 422.501 1269.2 423.301 1261.3C423.401 1260.4 423.801 1259.4 424.301 1258.6C428.001 1252.8 430.201 1246.9 430.501 1239.8C430.701 1235.5 431.001 1230 436.001 1227.4C442.201 1224.2 446.301 1220 445.301 1212.3C444.801 1208 445.101 1203.7 445.201 1199.3C445.201 1197.9 445.301 1196.2 446.001 1195C449.101 1189.9 452.201 1184.7 455.801 1179.9C461.601 1172.4 467.801 1165.1 474.001 1157.8C478.601 1152.3 483.501 1147 487.901 1141.4C489.801 1139 490.701 1136 492.101 1133.2C491.101 1132.7 491.201 1132.6 492.301 1133.1C492.801 1132.8 493.001 1132.6 493.101 1132.3C492.801 1131.8 492.901 1131.7 493.501 1132.3C496.301 1131.9 498.701 1131.6 501.101 1131.2C502.901 1130.6 504.601 1130 507.001 1129.1C510.701 1128.5 513.901 1128.6 516.701 1127.6C523.401 1125 530.001 1122.1 536.501 1118.9C541.001 1116.7 542.401 1108 539.101 1104.4C539.301 1106.5 539.101 1106.3 538.801 1104.3C538.001 1103.7 537.601 1103.7 536.901 1103.9C536.601 1104.2 536.501 1103.9 536.801 1103.5C534.501 1093.5 537.901 1085.3 541.601 1077C545.001 1069.5 547.801 1061.7 550.801 1054.1L551.001 1053.7C551.801 1053 552.501 1052.6 553.201 1052.2C553.001 1050.6 552.901 1049 552.701 1047.4C552.901 1049.1 553.001 1050.6 553.501 1052.1C556.601 1048.8 554.401 1046 552.701 1043.3C552.801 1043.2 552.901 1043.2 553.001 1043.1C559.801 1035.8 567.401 1030.7 575.901 1026.8C577.701 1026 579.901 1025.6 581.001 1024.2C583.301 1021.3 585.001 1018 587.001 1014.8C593.401 1004.3 596.501 992.5 600.001 980.9C602.701 972 605.001 962.9 607.301 953.9C609.001 947.3 610.401 940.7 611.601 934.1C610.901 935.1 610.301 936 609.601 937C610.301 935.9 611.001 934.9 611.801 933.8C613.501 929.3 614.701 925.2 616.001 921.1C615.701 920.6 615.501 920.2 615.201 919.4C615.101 919.4 615.001 919.5 614.901 919.5L615.001 919.1C615.201 919.1 615.301 919 615.501 919C616.601 917.2 617.301 915.6 618.101 913.7C618.101 914.2 618.101 914.4 618.401 914.9C619.001 915.2 619.401 915.2 620.001 914.9C620.501 913.9 620.601 914.1 620.101 915.3C619.901 916.4 619.901 916.9 619.901 917.4C620.101 918.5 620.201 919.6 620.201 921.3C621.101 922.8 622.101 923.8 623.101 924.8C623.301 925 623.601 925.1 623.801 925.4C623.601 925.2 623.301 925.1 623.101 925C623.501 925.5 623.801 925.9 624.301 926C624.401 926.1 624.501 926.2 624.501 926.4C625.301 928.2 626.201 929.5 627.001 930.7C627.601 930.8 628.201 931 628.801 931.2C628.201 931.1 627.601 931 627.101 931C628.201 931.5 629.201 931.8 630.201 931.9C630.401 932 630.601 932.1 630.801 932.3C632.501 934.6 633.701 936.7 635.501 937.6C641.501 940.5 646.301 936.5 651.401 934.3C651.801 933.8 652.201 933.3 652.701 932.8C652.301 933.3 651.901 933.8 651.701 934.3C652.601 933.5 653.201 932.7 653.601 931.9C653.701 931.8 653.901 931.7 654.001 931.5C656.401 930.9 658.201 930.6 659.901 930.2C661.001 929.6 662.101 929 663.701 928C665.101 928 666.001 928.3 666.901 928.7C673.601 928.7 680.301 928.6 687.501 928.5C688.201 928.3 688.401 928.2 688.501 928.1C689.401 927.6 690.301 927.1 691.701 926.4C695.801 924.9 699.301 923.7 702.901 922.4C703.101 922.1 703.201 921.8 703.601 921C704.601 916.8 705.301 913.1 706.201 909.5C706.401 908.6 707.001 907.8 707.501 907C707.601 906 707.701 906.1 707.801 907.2C708.701 907.7 709.401 908 710.001 908.3L710.101 908.7C710.301 911.5 710.501 913.9 711.001 916.1C711.601 914.9 711.601 915 710.901 916.6C710.301 922.2 710.201 927.3 710.101 932.3L709.901 932.4L709.801 932.3C708.601 932.6 707.801 932.9 707.001 933.6C707.101 933.8 707.101 934 707.201 934.3L706.901 934.5C706.801 934.2 706.701 934 706.601 933.7C705.301 933.7 704.501 934.1 703.701 934.4C702.001 935 700.201 935.7 697.801 936.4C694.001 939.5 691.001 942.5 687.901 945.5C686.101 946.1 684.401 946.7 682.001 947.7C680.801 949 680.501 950.2 679.601 950.9C675.501 954.1 671.601 958 667.001 960.1C661.501 962.5 655.001 962.7 649.401 965C645.301 966.7 639.801 967.1 637.801 972.7L637.401 972.8C636.301 972.4 635.601 972.4 634.901 972.4C634.801 972.5 634.801 972.6 634.701 972.7H634.501C634.601 972.5 634.701 972.2 634.901 972C633.101 967.2 630.201 968.9 628.001 970.8C623.001 975.1 620.001 980.4 619.901 986.7C619.901 986.9 619.901 987.2 619.901 987.4L620.001 994.7C620.001 995.5 620.001 996.2 620.001 996.9C620.201 1001.1 621.601 1004.9 623.501 1008.7C626.801 1015.3 630.201 1021.9 632.701 1028.8C634.401 1033.4 634.901 1038.4 635.701 1043.3C636.001 1045.3 635.701 1047.4 635.701 1049.4C636.401 1049.2 637.101 1049.1 637.801 1048.9V1049C637.101 1049.2 636.301 1049.4 635.601 1049.8C635.101 1055.7 633.301 1061.2 636.801 1066.3C638.501 1067.8 638.501 1068 636.801 1066.8C637.101 1071 637.401 1074.7 638.001 1078.1C638.101 1076.1 638.101 1076.3 638.001 1078.5C638.401 1082 639.001 1084.8 639.801 1087.7C640.801 1091.4 641.301 1095.4 642.901 1098.8C644.701 1102.8 648.201 1106 649.601 1110.1C651.101 1114.6 654.201 1116.6 657.901 1118.4C659.801 1119.3 661.901 1119.7 663.901 1120.3C670.901 1120.3 677.901 1120.4 685.501 1120.2C688.001 1118.8 690.001 1117.6 691.901 1116.5C691.401 1116.3 690.701 1115.8 690.201 1115.7C690.701 1115.8 691.401 1116.3 692.201 1116.5C693.101 1115.9 694.101 1115.3 695.001 1114.7C697.001 1113.3 698.301 1111.8 695.501 1108.8V1108.3C701.501 1102.5 702.301 1095.7 701.101 1088.5C701.001 1088.6 700.801 1088.6 700.701 1088.7V1088.3C700.901 1088.2 701.001 1088.1 701.201 1088.1C701.401 1085.7 701.601 1083.6 701.001 1081.8C699.901 1078.7 697.801 1076 697.001 1072.9C695.301 1066.5 694.101 1060 692.301 1053.5V1053.1C692.301 1053.1 692.301 1053.1 692.401 1053.1C692.801 1044.2 692.401 1035.7 693.001 1027.3C693.401 1022.6 695.001 1017.8 697.001 1013.5C698.001 1011.3 701.201 1010 703.601 1008.7C709.901 1005.1 716.501 1002.1 723.701 1002.1L727.701 1002.4L727.901 1002.2C728.001 1002.3 728.001 1002.4 728.101 1002.5C734.901 1001.1 738.101 996.1 741.401 991.2L742.001 990.7H744.001V990.8C749.101 992.4 753.901 993.8 758.701 994.9H759.201C759.201 994.9 759.201 995 759.101 995C764.601 995.4 769.801 995.4 774.901 995.4L776.701 995.5C778.101 995.5 779.201 995.7 780.001 995.2C784.301 992.9 788.601 991.5 793.301 994.1L793.801 994.7C794.501 996.1 795.301 997.2 796.001 998C799.101 1001.6 802.701 1001 807.101 997.4C812.701 992.8 819.001 989.1 825.201 985C825.401 984.8 825.501 984.7 825.501 984.5H825.601C825.701 984.5 825.701 984.5 825.801 984.6C826.801 984.5 827.601 984.3 828.001 984C827.301 984 826.701 984.1 826.201 984.2L826.301 984.1C826.801 984 827.401 983.8 828.301 983.6C828.801 983.3 828.901 983.1 828.901 982.9L829.701 982.5C834.801 979.3 839.501 976.2 844.201 973C844.201 973 844.501 972.8 844.701 972.6C844.901 972.2 845.001 972 845.001 971.8C844.901 971.2 845.101 971.1 845.201 971.7C846.001 971.3 846.701 971 847.301 970.3C847.401 969.6 847.301 969.2 847.301 968.4L847.701 968.2C849.201 966.8 851.001 965.3 851.201 963.5C851.601 960.7 853.101 960.8 855.101 960.2C858.501 959.2 861.701 957.4 864.501 955.8L864.601 955.7H864.701C865.301 955.8 865.501 955.5 865.501 955.5C865.501 955.4 865.601 955.2 865.701 955.1C865.601 955.2 865.701 955.3 865.701 955.4C866.301 955.2 866.401 954.9 866.201 954.6C866.101 954.6 866.001 954.7 865.901 954.7C866.001 954.6 866.201 954.5 866.401 954.4C867.101 953.9 867.301 953.6 867.501 953.4C867.601 953.1 867.801 952.8 868.001 952.5C867.801 952.8 867.801 953.1 867.801 953.3C868.301 952.8 868.601 952.3 868.601 951.9L868.801 951.7C869.301 951.6 869.401 951.4 869.401 951.4C869.601 951.1 869.801 950.9 870.001 950.6L870.101 950.5C869.901 950.8 869.801 951.1 869.701 951.3C870.301 950.7 870.701 950.2 870.901 949.7L871.501 949.1C872.001 948.8 872.201 948.5 872.401 948.3L872.701 948C872.701 948.1 872.701 948.2 872.701 948.2C876.501 944 880.001 939.9 883.501 935.6C883.701 935.1 883.901 934.7 884.001 934.4L884.401 934C884.901 933.8 885.001 933.6 884.901 933.4C885.001 933.4 885.101 933.4 885.201 933.4C886.001 933.3 886.301 933.3 886.801 932.9C887.501 928 888.001 923.5 888.101 919L888.601 918.4C889.201 918.1 889.401 917.9 889.401 917.6C889.401 917.5 889.401 917.4 889.401 917.3L889.701 916.9C889.701 917.1 889.701 917.3 889.801 917.4C890.401 916.7 890.701 916 891.001 915.4C891.001 915.3 891.001 915.3 891.001 915.2L891.201 915C891.301 912 891.201 909.5 890.801 907C890.801 906.7 890.801 906.4 890.801 906C891.201 899.7 891.101 894 891.101 888.4L891.201 888.1L886.101 878.6C885.201 876.3 884.401 874.1 884.501 871.8C884.701 871 885.001 870.2 885.301 869.3C888.401 868.4 890.801 867.8 893.201 867.2L894.001 867.3C895.801 867.5 897.401 867.5 899.001 867.4C898.801 866.6 898.701 865.9 898.401 865.4L898.101 865.2C893.401 863.6 889.001 862.5 884.501 861.4C884.401 861.4 884.301 861.4 884.301 861.4L884.401 861.1C881.501 860.3 878.601 859.8 875.801 859.6C875.801 859.3 875.701 859.3 875.701 859.3C875.601 859.3 875.501 859.3 875.501 859.3L875.701 859.1C875.501 858.6 875.201 858.4 874.901 858.7C874.801 858.4 874.801 858.4 874.801 858.4C874.201 857.4 873.701 856.5 873.001 855V854.7L872.801 854.5V854.4C871.501 852.4 870.301 850.9 869.101 849.8L868.901 849.5C868.901 849.3 869.001 849.3 869.001 849.3C868.701 849.2 868.301 849 867.901 848.7C867.501 848.2 867.301 848 867.001 847.5C866.901 847.3 867.001 847.3 867.001 847.3C866.701 847.1 866.301 846.9 865.901 846.4C865.901 846.3 865.901 846.2 865.901 846.1C866.101 846.1 866.301 846.1 866.601 845.9C866.601 845.3 866.401 845.2 865.901 845.3C865.901 845.5 865.801 845.7 865.801 845.8C865.801 845.6 865.801 845.4 865.701 845.1C865.401 844.7 865.101 844.5 864.801 844.4C864.701 844 864.401 843.7 864.201 843.5L864.001 843.1C863.101 842.4 862.201 841.9 861.301 841.7L861.001 841.4C861.001 841.3 861.101 841.3 861.101 841.3L861.001 841.2L861.101 840.8C861.201 840.9 861.201 840.9 861.301 841C861.201 840.9 861.201 840.8 861.101 840.7L861.001 840.5C860.801 840.1 860.601 839.7 860.401 839.4L860.301 839.3C859.901 838.7 859.501 838.2 859.001 837.8C859.101 837.5 859.101 837.4 859.101 837.4C859.101 837.4 859.001 837.4 859.001 837.3L859.101 837C858.401 835.8 857.701 835 857.001 834.2C856.701 834.1 856.401 834 855.801 833.5C855.501 833.3 855.401 833.3 855.201 833.3L855.001 833C853.301 830.9 851.601 829.1 849.601 827.4V827.5L849.501 827.3C849.501 827.2 849.601 827.1 849.601 827C848.101 824.5 846.501 822.4 844.801 820.3L843.901 819.1V819C843.801 818.9 843.701 818.8 843.601 818.7C843.001 818.1 842.501 817.7 842.001 817.6C842.001 817.5 841.901 817.4 841.901 817.3C841.101 815.5 840.401 814.5 839.701 813.5C839.701 813.5 839.301 813.4 839.101 813.4V813.5L839.001 813.3C839.001 813.3 839.001 813.2 838.701 813C838.201 812.7 837.201 812 836.601 811.3C829.901 805.2 823.601 799.5 817.101 793.9C816.101 793.1 814.301 793.1 812.801 792.9C812.701 793 812.701 793 812.701 793.1H812.601C812.701 793 812.801 792.8 812.901 792.6C813.201 791.9 813.301 791.7 813.001 791.5C812.001 790.9 812.201 790.9 813.401 791.4C815.301 789.6 816.701 788 817.701 786.2C819.401 783 820.901 779.6 822.501 776.3C823.801 773.7 825.701 771.3 826.501 768.5C828.401 762.4 829.801 756.1 831.301 749.8C832.601 744.2 833.901 738.6 835.101 732.9C835.501 730.8 835.601 728.6 835.801 726.4L836.201 726.2C840.501 725.6 843.601 724 843.201 719.2L843.301 718.4C845.501 709.3 842.601 701.5 838.301 694L837.901 693L837.001 692.1C834.401 689.5 831.801 687.1 828.701 684.2C828.501 686.5 828.601 688.2 828.201 689.8C827.901 691.1 827.201 693.1 826.401 693.2C821.401 693.9 816.301 694.1 811.201 694.9L810.901 694.6C810.201 694.1 809.601 693.9 808.901 693.8L807.901 693.4C807.601 693 807.301 692.9 806.901 692.8C806.801 692.7 806.701 692.5 806.701 692.4C806.901 691 806.901 690.2 806.501 689.4C803.601 690 803.501 689.8 806.501 689C808.401 687.8 809.901 687 811.301 686.1C811.801 686 812.301 685.8 813.401 685.6C815.301 684.7 816.701 683.8 818.001 683C817.801 681.2 817.801 681.1 818.201 682.9C819.001 682.7 819.501 682.6 820.001 682.3C820.001 682.1 820.101 681.6 819.901 681.4C822.501 681.7 824.901 681.7 828.001 681.4C828.501 680 828.501 678.9 828.401 677.8C828.801 677.1 841.701 682.3 841.501 683.3C843.001 684.2 844.901 685.2 846.101 684.8C848.801 683.7 851.101 681.9 853.601 680C853.401 679.4 853.501 679.4 853.801 680.2C854.501 681 855.001 681.3 855.501 681.6C856.301 681.6 856.301 681.8 855.401 682C856.901 686.7 858.701 691.1 860.001 695.5C861.001 698.9 860.801 702.6 862.001 705.8C865.001 713.4 866.801 721.1 866.401 729.3C866.301 732.1 866.501 734.9 866.601 737.7C867.801 737 867.801 737 866.501 738.1C867.201 739.6 868.101 740.8 868.901 741.9C869.701 741.4 869.701 741.4 869.101 742.2C872.501 744.3 875.801 746 878.901 748C883.101 750.7 886.901 750.1 890.701 747C891.101 746.9 891.201 746.8 891.401 746.3C890.401 746.1 890.401 746 891.701 746.3C893.201 746.1 894.401 745.7 895.901 745C898.901 742.1 901.501 739.4 904.101 736.7C903.401 736.7 903.401 736.7 904.201 736.6C904.301 736.5 904.901 734.9 905.101 734.3C905.001 734.5 904.901 734.9 904.601 735.6C911.201 732.6 912.301 726.4 913.101 720.4C914.001 710 909.701 701 907.601 691.5ZM843.601 483.8C843.601 484 843.601 484.2 843.601 484.4C843.601 484.2 843.601 483.9 843.601 483.8ZM573.401 380.5L573.101 380.9C573.601 379.9 574.201 379 574.901 378.2C574.301 378.9 573.801 379.7 573.401 380.5ZM380.201 566.5C380.201 566 380.201 565.4 380.201 564.9C380.201 565.4 380.201 565.9 380.201 566.5ZM365.201 781.9C365.201 781.9 365.201 782 365.301 782.2L365.201 781.9ZM301.201 883.1H301.301L301.401 883.2C301.401 883.2 301.301 883.1 301.201 883.1ZM578.601 399.7C578.601 399.6 578.501 399.5 578.501 399.5C578.501 399.5 578.501 399.5 578.601 399.5V399.7C578.701 399.8 578.901 400 579.001 400.1L579.101 400.2C578.901 400 578.701 399.9 578.601 399.7Z" fill="black"/>
<path d="M402.702 344L404.102 345.5C405.402 347.1 406.602 348.4 407.802 349.4C407.802 349.5 407.802 349.5 407.802 349.6C407.602 350.2 407.702 350.5 407.702 350.5C408.502 350.5 409.302 350.4 410.502 350.3C410.902 350.3 410.902 350.3 410.902 350.3C411.002 350.3 411.002 350.2 411.102 350.2L411.302 350.3C413.002 350.8 414.202 351.3 415.802 351.8C416.702 351 417.302 350.2 417.902 349.4C417.902 349.4 417.902 349.4 417.802 349.4L418.002 349.3H418.102C418.402 349.2 418.602 349.1 418.702 348.9L420.402 348.3C424.202 347.6 427.602 346.5 430.902 344.9C430.902 344.8 430.902 344.7 430.802 344.6L431.002 344.5C431.102 344.6 431.102 344.7 431.202 344.8C441.802 344.2 444.002 341.9 443.702 331.9C443.702 331.7 443.702 331.6 443.302 331.3C442.202 331.9 442.202 331.9 443.302 331C443.302 330.1 443.002 329.4 442.202 328.6C440.902 328 440.102 327.6 439.402 327.1C439.302 326.8 439.102 326.5 439.002 325.7C438.702 325.2 438.402 324.8 438.102 324.5L437.002 323.4C432.202 322.7 427.902 323.3 425.002 327.5C424.902 327.5 424.702 327.6 424.602 327.6C423.802 327.4 423.302 327.4 422.802 327.4L421.602 327.3C420.102 327.8 418.902 328.4 417.702 329.3L417.502 329.2V329.1C417.402 329.1 417.302 329 417.202 329C412.902 327.4 412.702 330.1 412.802 333.5L412.502 333.4C410.402 332.3 408.602 331.7 406.802 331.1H406.602C406.602 331 406.602 331 406.602 330.9C406.502 330.9 406.402 331 406.302 331C400.702 333.9 399.102 339.7 402.502 343.8L402.702 344Z" fill="black"/>
</g>
<defs>
<linearGradient id="paint0_linear_5108_69969" x1="579.5" y1="0" x2="579.5" y2="945" gradientUnits="userSpaceOnUse">
<stop stop-color="white" stop-opacity="0"/>
<stop offset="0.276042" stop-color="white"/>
</linearGradient>
</defs>
</svg>
